<svg xmlns="http://www.w3.org/2000/svg" width="1577" height="778" viewBox="0 0 1577 778">
  <g id="그룹_2704" data-name="그룹 2704" transform="translate(-187 -153)">
    <g id="그룹_2611" data-name="그룹 2611">
      <path id="패스_1532" data-name="패스 1532" d="M12086,4370.5V3943.855" transform="translate(-11356 -3760)" fill="none" stroke="#bfbfbf" stroke-width="1"/>
      <rect id="사각형_3483" data-name="사각형 3483" width="169" height="33" transform="translate(644 403)" fill="#fff"/>
      <path id="패스_1535" data-name="패스 1535" d="M12137,3939h1402.949" transform="translate(-11856 -3760)" fill="none" stroke="#bfbfbf" stroke-width="1"/>
      <path id="패스_1534" data-name="패스 1534" d="M12905.705,4093.5h87.265" transform="translate(-11856 -3760)" fill="none" stroke="#707070" stroke-width="1"/>
      <path id="패스_1531" data-name="패스 1531" d="M12086,4574.664V3943.855" transform="translate(-11806 -3760)" fill="none" stroke="#bfbfbf" stroke-width="1"/>
      <path id="패스_1536" data-name="패스 1536" d="M12086,4277.5V3943.855" transform="translate(-10645.5 -3760)" fill="none" stroke="#bfbfbf" stroke-width="1"/>
      <path id="패스_1537" data-name="패스 1537" d="M12086,4092.5V3943.855" transform="translate(-10412 -3760)" fill="none" stroke="#bfbfbf" stroke-width="1"/>
      <path id="패스_1533" data-name="패스 1533" d="M12086,4675V3943.854" transform="translate(-11108 -3760)" fill="none" stroke="#bfbfbf" stroke-width="1"/>
      <g id="사각형_3229" data-name="사각형 3229" transform="translate(190 397)" fill="#f5f6fa" stroke="#d0d0d0" stroke-width="1">
        <rect width="180" height="52" rx="26" stroke="none"/>
        <rect x="0.5" y="0.5" width="179" height="51" rx="25.5" fill="none"/>
      </g>
      <g id="사각형_3249" data-name="사각형 3249" transform="translate(1350 304)" fill="#f5f6fa" stroke="#80a2ff" stroke-width="1.5">
        <rect width="180" height="52" rx="26" stroke="none"/>
        <rect x="0.75" y="0.75" width="178.5" height="50.5" rx="25.25" fill="none"/>
      </g>
      <g id="사각형_3238" data-name="사각형 3238" transform="translate(640 305)" fill="#f5f6fa" stroke="#80a2ff" stroke-width="1.5">
        <rect width="180" height="52" rx="26" stroke="none"/>
        <rect x="0.75" y="0.75" width="178.5" height="50.5" rx="25.25" fill="none"/>
      </g>
      <g id="사각형_3241" data-name="사각형 3241" transform="translate(890 305)" fill="#f5f6fa" stroke="#80a2ff" stroke-width="1.5">
        <rect width="180" height="52" rx="26" stroke="none"/>
        <rect x="0.75" y="0.75" width="178.5" height="50.5" rx="25.25" fill="none"/>
      </g>
      <rect id="사각형_3242" data-name="사각형 3242" width="180" height="52" rx="26" transform="translate(1584 154)" fill="#4755a1"/>
      <g id="사각형_3244" data-name="사각형 3244" transform="translate(890 581)" fill="#f5f6fa" stroke="#80a2ff" stroke-width="1.5">
        <rect width="180" height="52" rx="26" stroke="none"/>
        <rect x="0.75" y="0.75" width="178.5" height="50.5" rx="25.25" fill="none"/>
      </g>
      <g id="사각형_3484" data-name="사각형 3484" transform="translate(890 489)" fill="#f5f6fa" stroke="#80a2ff" stroke-width="1.5">
        <rect width="180" height="52" rx="26" stroke="none"/>
        <rect x="0.75" y="0.75" width="178.5" height="50.5" rx="25.25" fill="none"/>
      </g>
      <g id="사각형_3287" data-name="사각형 3287" transform="translate(890 879)" fill="#f5f6fa" stroke="#80a2ff" stroke-width="1.5">
        <rect width="180" height="52" rx="26" stroke="none"/>
        <rect x="0.75" y="0.75" width="178.5" height="50.5" rx="25.25" fill="none"/>
      </g>
      <g id="사각형_3251" data-name="사각형 3251" transform="translate(1100 305)" fill="#f5f6fa" stroke="#80a2ff" stroke-width="1.5">
        <rect width="180" height="52" rx="26" stroke="none"/>
        <rect x="0.75" y="0.75" width="178.5" height="50.5" rx="25.25" fill="none"/>
      </g>
      <g id="사각형_3239" data-name="사각형 3239" transform="translate(640 489)" fill="#f5f6fa" stroke="#80a2ff" stroke-width="1.5">
        <rect width="180" height="52" rx="26" stroke="none"/>
        <rect x="0.75" y="0.75" width="178.5" height="50.5" rx="25.25" fill="none"/>
      </g>
      <g id="사각형_3230" data-name="사각형 3230" transform="translate(190 489)" fill="#f5f6fa" stroke="#d0d0d0" stroke-width="1">
        <rect width="180" height="52" rx="26" stroke="none"/>
        <rect x="0.5" y="0.5" width="179" height="51" rx="25.5" fill="none"/>
      </g>
      <g id="사각형_3248" data-name="사각형 3248" transform="translate(1350 396)" fill="#f5f6fa" stroke="#80a2ff" stroke-width="1.5">
        <rect width="180" height="52" rx="26" stroke="none"/>
        <rect x="0.75" y="0.75" width="178.5" height="50.5" rx="25.25" fill="none"/>
      </g>
      <g id="사각형_3231" data-name="사각형 3231" transform="translate(190 672)" fill="#f5f6fa" stroke="#d0d0d0" stroke-width="1">
        <rect width="180" height="52" rx="26" stroke="none"/>
        <rect x="0.5" y="0.5" width="179" height="51" rx="25.5" fill="none"/>
      </g>
      <g id="사각형_3247" data-name="사각형 3247" transform="translate(1350 488)" fill="#f5f6fa" stroke="#80a2ff" stroke-width="1.5">
        <rect width="180" height="52" rx="26" stroke="none"/>
        <rect x="0.75" y="0.75" width="178.5" height="50.5" rx="25.25" fill="none"/>
      </g>
      <g id="사각형_3232" data-name="사각형 3232" transform="translate(190 813)" fill="#f5f6fa" stroke="#d0d0d0" stroke-width="1">
        <rect width="180" height="52" rx="26" stroke="none"/>
        <rect x="0.5" y="0.5" width="179" height="51" rx="25.5" fill="none"/>
      </g>
      <g id="사각형_3233" data-name="사각형 3233" transform="translate(190 581)" fill="#f5f6fa" stroke="#d0d0d0" stroke-width="1">
        <rect width="180" height="52" rx="26" stroke="none"/>
        <rect x="0.5" y="0.5" width="179" height="51" rx="25.5" fill="none"/>
      </g>
      <g id="사각형_3240" data-name="사각형 3240" transform="translate(640 582)" fill="#f5f6fa" stroke="#d0d0d0" stroke-width="1">
        <rect width="180" height="52" rx="26" stroke="none"/>
        <rect x="0.5" y="0.5" width="179" height="51" rx="25.5" fill="none"/>
      </g>
      <g id="사각형_3250" data-name="사각형 3250" transform="translate(190 305)" fill="#f5f6fa" stroke="#80a2ff" stroke-width="1.5">
        <rect width="180" height="52" rx="26" stroke="none"/>
        <rect x="0.75" y="0.75" width="178.5" height="50.5" rx="25.25" fill="none"/>
      </g>
      <g id="사각형_3252" data-name="사각형 3252" transform="translate(400 305)" fill="#f5f6fa" stroke="#80a2ff" stroke-width="1.5">
        <rect width="180" height="52" rx="26" stroke="none"/>
        <rect x="0.75" y="0.75" width="178.5" height="50.5" rx="25.25" fill="none"/>
      </g>
      <g id="사각형_3243" data-name="사각형 3243" transform="translate(890 765)" fill="#f5f6fa" stroke="#d0d0d0" stroke-width="1">
        <rect width="180" height="52" rx="26" stroke="none"/>
        <rect x="0.5" y="0.5" width="179" height="51" rx="25.5" fill="none"/>
      </g>
      <g id="사각형_3280" data-name="사각형 3280" transform="translate(1584 305)" fill="#f5f6fa" stroke="#d0d0d0" stroke-width="1">
        <rect width="180" height="52" rx="26" stroke="none"/>
        <rect x="0.5" y="0.5" width="179" height="51" rx="25.5" fill="none"/>
      </g>
      <g id="사각형_3255" data-name="사각형 3255" transform="translate(890 397)" fill="#f5f6fa" stroke="#d0d0d0" stroke-width="1">
        <rect width="180" height="52" rx="26" stroke="none"/>
        <rect x="0.5" y="0.5" width="179" height="51" rx="25.5" fill="none"/>
      </g>
      <g id="사각형_3254" data-name="사각형 3254" transform="translate(890 673)" fill="#f5f6fa" stroke="#d0d0d0" stroke-width="1">
        <rect width="180" height="52" rx="26" stroke="none"/>
        <rect x="0.5" y="0.5" width="179" height="51" rx="25.5" fill="none"/>
      </g>
      <rect id="사각형_3228" data-name="사각형 3228" width="180" height="52" rx="26" transform="translate(190 153)" fill="#4755a1"/>
      <rect id="사각형_3235" data-name="사각형 3235" width="180" height="52" rx="26" transform="translate(640 153)" fill="#4755a1"/>
      <rect id="사각형_3236" data-name="사각형 3236" width="180" height="52" rx="26" transform="translate(890 153)" fill="#4755a1"/>
      <rect id="사각형_3246" data-name="사각형 3246" width="180" height="52" rx="26" transform="translate(1350 153)" fill="#4755a1"/>
      <text id="추천_아이템" data-name="추천 아이템" transform="translate(230 432)" fill="#959595" font-size="22" font-family="AppleSDGothicNeo-Medium, Apple SD Gothic Neo" font-weight="500"><tspan x="0" y="0">추천</tspan><tspan y="0" font-family="Poppins-Medium, Poppins"> </tspan><tspan y="0">아이템</tspan></text>
      <text id="고객센터" transform="translate(1402 339)" fill="#4755a1" font-size="22" font-family="AppleSDGothicNeo-Medium, Apple SD Gothic Neo" font-weight="500"><tspan x="0" y="0">고객센터</tspan></text>
      <text id="상의" transform="translate(711 340)" fill="#4755a1" font-size="22" font-family="AppleSDGothicNeo-Medium, Apple SD Gothic Neo" font-weight="500"><tspan x="0" y="0">상의</tspan></text>
      <text id="옷장_화면" data-name="옷장 화면" transform="translate(939 340)" fill="#4755a1" font-size="22" font-family="AppleSDGothicNeo-Medium, Apple SD Gothic Neo" font-weight="500"><tspan x="0" y="0">옷장</tspan><tspan y="0" font-family="Poppins-Medium, Poppins"> </tspan><tspan y="0">화면</tspan></text>
      <text id="장바구니" transform="translate(1636 189)" fill="#fff" font-size="22" font-family="AppleSDGothicNeo-Medium, Apple SD Gothic Neo" font-weight="500"><tspan x="0" y="0">장바구니</tspan></text>
      <text id="VR피팅" transform="translate(947 616)" fill="#4755a1" font-size="22" font-family="Poppins-Medium, Poppins" font-weight="500"><tspan x="0" y="0">VR</tspan><tspan y="0" font-family="AppleSDGothicNeo-Medium, Apple SD Gothic Neo">피팅</tspan></text>
      <text id="클로젯쉐어" transform="translate(933 524)" fill="#4755a1" font-size="22" font-family="AppleSDGothicNeo-Medium, Apple SD Gothic Neo" font-weight="500"><tspan x="0" y="0">클로젯쉐어</tspan></text>
      <text id="옷장꾸미기" transform="translate(933 914)" fill="#4755a1" font-size="22" font-family="AppleSDGothicNeo-Medium, Apple SD Gothic Neo" font-weight="500"><tspan x="0" y="0">옷장꾸미기</tspan></text>
      <text id="스토어방문" transform="translate(1143 340)" fill="#4755a1" font-size="22" font-family="AppleSDGothicNeo-Medium, Apple SD Gothic Neo" font-weight="500"><tspan x="0" y="0">스토어방문</tspan></text>
      <text id="_내_스타일_상품_상위노출_fit이_맞는_제품_노출_만족도_리뷰_데이터_기반_" data-name="*내 스타일 상품 상위노출
*fit이 맞는 제품 노출
(만족도, 리뷰 데이터 기반)" transform="translate(400 422)" fill="#3379db" font-size="18" font-family="Poppins-Medium, Poppins" font-weight="500"><tspan x="0" y="0">*</tspan><tspan y="0" font-family="AppleSDGothicNeo-Medium, Apple SD Gothic Neo">내</tspan><tspan y="0"> </tspan><tspan y="0" font-family="AppleSDGothicNeo-Medium, Apple SD Gothic Neo">스타일</tspan><tspan y="0"> </tspan><tspan y="0" font-family="AppleSDGothicNeo-Medium, Apple SD Gothic Neo">상품</tspan><tspan y="0"> </tspan><tspan y="0" font-family="AppleSDGothicNeo-Medium, Apple SD Gothic Neo">상위노출</tspan><tspan y="0"></tspan><tspan x="0" y="32">*fit</tspan><tspan y="32" font-family="AppleSDGothicNeo-Medium, Apple SD Gothic Neo">이</tspan><tspan y="32"> </tspan><tspan y="32" font-family="AppleSDGothicNeo-Medium, Apple SD Gothic Neo">맞는</tspan><tspan y="32"> </tspan><tspan y="32" font-family="AppleSDGothicNeo-Medium, Apple SD Gothic Neo">제품</tspan><tspan y="32"> </tspan><tspan y="32" font-family="AppleSDGothicNeo-Medium, Apple SD Gothic Neo">노출</tspan><tspan y="32"></tspan><tspan x="0" y="64">(</tspan><tspan y="64" font-family="AppleSDGothicNeo-Medium, Apple SD Gothic Neo">만족도</tspan><tspan y="64">, </tspan><tspan y="64" font-family="AppleSDGothicNeo-Medium, Apple SD Gothic Neo">리뷰</tspan><tspan y="64"> </tspan><tspan y="64" font-family="AppleSDGothicNeo-Medium, Apple SD Gothic Neo">데이터</tspan><tspan y="64"> </tspan><tspan y="64" font-family="AppleSDGothicNeo-Medium, Apple SD Gothic Neo">기반</tspan><tspan y="64">)</tspan></text>
      <text id="_원하지_않는_스타일_숨김" data-name="*원하지 않는 스타일 숨김" transform="translate(400 390)" fill="#3379db" font-size="18" font-family="Poppins-Medium, Poppins" font-weight="500"><tspan x="0" y="0">*</tspan><tspan y="0" font-family="AppleSDGothicNeo-Medium, Apple SD Gothic Neo">원하지</tspan><tspan y="0"> </tspan><tspan y="0" font-family="AppleSDGothicNeo-Medium, Apple SD Gothic Neo">않는</tspan><tspan y="0"> </tspan><tspan y="0" font-family="AppleSDGothicNeo-Medium, Apple SD Gothic Neo">스타일</tspan><tspan y="0"> </tspan><tspan y="0" font-family="AppleSDGothicNeo-Medium, Apple SD Gothic Neo">숨김</tspan></text>
      <text id="패션잡화" transform="translate(692 524)" fill="#4755a1" font-size="22" font-family="AppleSDGothicNeo-Medium, Apple SD Gothic Neo" font-weight="500"><tspan x="0" y="0">패션잡화</tspan></text>
      <text id="신상" transform="translate(261 524)" fill="#959595" font-size="22" font-family="AppleSDGothicNeo-Medium, Apple SD Gothic Neo" font-weight="500"><tspan x="0" y="0">신상</tspan></text>
      <text id="나의_쇼핑정보" data-name="나의 쇼핑정보" transform="translate(1380 431)" fill="#4755a1" font-size="22" font-family="AppleSDGothicNeo-Medium, Apple SD Gothic Neo" font-weight="500"><tspan x="0" y="0">나의</tspan><tspan y="0" font-family="Poppins-Medium, Poppins"> </tspan><tspan y="0">쇼핑정보</tspan></text>
      <text id="클로젯쉐어-2" data-name="클로젯쉐어" transform="translate(233 707)" fill="#959595" font-size="22" font-family="AppleSDGothicNeo-Medium, Apple SD Gothic Neo" font-weight="500"><tspan x="0" y="0">클로젯쉐어</tspan></text>
      <text id="계정설정" transform="translate(1402 523)" fill="#4755a1" font-size="22" font-family="AppleSDGothicNeo-Medium, Apple SD Gothic Neo" font-weight="500"><tspan x="0" y="0">계정설정</tspan></text>
      <text id="OOTD" transform="translate(249 848)" fill="#959595" font-size="22" font-family="Poppins-Medium, Poppins" font-weight="500"><tspan x="0" y="0">OOTD</tspan></text>
      <text id="이벤트" transform="translate(252 616)" fill="#959595" font-size="22" font-family="AppleSDGothicNeo-Medium, Apple SD Gothic Neo" font-weight="500"><tspan x="0" y="0">이벤트</tspan></text>
      <text id="결제" transform="translate(711 617)" fill="#959595" font-size="22" font-family="AppleSDGothicNeo-Medium, Apple SD Gothic Neo" font-weight="500"><tspan x="0" y="0">결제</tspan></text>
      <text id="검색창" transform="translate(252 340)" fill="#4755a1" font-size="22" font-family="AppleSDGothicNeo-Medium, Apple SD Gothic Neo" font-weight="500"><tspan x="0" y="0">검색창</tspan></text>
      <text id="검색결과" transform="translate(452 340)" fill="#4755a1" font-size="22" font-family="AppleSDGothicNeo-Medium, Apple SD Gothic Neo" font-weight="500"><tspan x="0" y="0">검색결과</tspan></text>
      <text id="결제-2" data-name="결제" transform="translate(961 800)" fill="#959595" font-size="22" font-family="AppleSDGothicNeo-Medium, Apple SD Gothic Neo" font-weight="500"><tspan x="0" y="0">결제</tspan></text>
      <text id="결제-3" data-name="결제" transform="translate(1655 340)" fill="#959595" font-size="22" font-family="AppleSDGothicNeo-Medium, Apple SD Gothic Neo" font-weight="500"><tspan x="0" y="0">결제</tspan></text>
      <text id="좋아요_상품" data-name="좋아요 상품" transform="translate(930 432)" fill="#959595" font-size="22" font-family="AppleSDGothicNeo-Medium, Apple SD Gothic Neo" font-weight="500"><tspan x="0" y="0">좋아요</tspan><tspan y="0" font-family="Poppins-Medium, Poppins"> </tspan><tspan y="0">상품</tspan></text>
      <text id="SNS_공유" data-name="SNS 공유" transform="translate(937 708)" fill="#959595" font-size="22" font-family="Poppins-Medium, Poppins" font-weight="500"><tspan x="0" y="0">SNS </tspan><tspan y="0" font-family="AppleSDGothicNeo-Medium, Apple SD Gothic Neo">공유</tspan></text>
      <text id="홈" transform="translate(271 188)" fill="#fff" font-size="22" font-family="AppleSDGothicNeo-Medium, Apple SD Gothic Neo" font-weight="500"><tspan x="0" y="0">홈</tspan></text>
      <text id="카테고리" transform="translate(692 188)" fill="#fff" font-size="22" font-family="AppleSDGothicNeo-Medium, Apple SD Gothic Neo" font-weight="500"><tspan x="0" y="0">카테고리</tspan></text>
      <text id="마이클로젯" transform="translate(933 188)" fill="#fff" font-size="22" font-family="AppleSDGothicNeo-Medium, Apple SD Gothic Neo" font-weight="500"><tspan x="0" y="0">마이클로젯</tspan></text>
      <text id="마이페이지" transform="translate(1393 188)" fill="#fff" font-size="22" font-family="AppleSDGothicNeo-Medium, Apple SD Gothic Neo" font-weight="500"><tspan x="0" y="0">마이페이지</tspan></text>
      <text id="하의_아우터_드레스_등" data-name="하의, 아우터, 드레스 등" transform="translate(647 426)" fill="#7e7e7e" font-size="18" font-family="AppleSDGothicNeo-Medium, Apple SD Gothic Neo" font-weight="500"><tspan x="0" y="0">하의</tspan><tspan y="0" font-family="Poppins-Medium, Poppins">, </tspan><tspan y="0">아우터</tspan><tspan y="0" font-family="Poppins-Medium, Poppins">, </tspan><tspan y="0">드레스</tspan><tspan y="0" font-family="Poppins-Medium, Poppins"> </tspan><tspan y="0">등</tspan></text>
      <text id="원하는_패션_브랜드_방문" data-name="원하는 패션 브랜드 방문" transform="translate(1106 387)" fill="#3379db" font-size="18" font-family="AppleSDGothicNeo-Medium, Apple SD Gothic Neo" font-weight="500"><tspan x="0" y="0">원하는</tspan><tspan y="0" font-family="Poppins-Medium, Poppins"> </tspan><tspan y="0">패션</tspan><tspan y="0" font-family="Poppins-Medium, Poppins"> </tspan><tspan y="0">브랜드</tspan><tspan y="0" font-family="Poppins-Medium, Poppins"> </tspan><tspan y="0">방문</tspan></text>
      <rect id="사각형_3485" data-name="사각형 3485" width="169" height="33" transform="translate(885 827)" fill="#fff"/>
      <rect id="사각형_3486" data-name="사각형 3486" width="169" height="61" transform="translate(201 730)" fill="#fff"/>
      <text id="_VR내에서_face결제_가능" data-name="*VR내에서 face결제 가능" transform="translate(890 850)" fill="#3379db" font-size="18" font-family="Poppins-Medium, Poppins" font-weight="500"><tspan x="0" y="0">*VR</tspan><tspan y="0" font-family="AppleSDGothicNeo-Medium, Apple SD Gothic Neo">내에서</tspan><tspan y="0" xml:space="preserve"> face</tspan><tspan y="0" font-family="AppleSDGothicNeo-Medium, Apple SD Gothic Neo">결제</tspan><tspan y="0"> </tspan><tspan y="0" font-family="AppleSDGothicNeo-Medium, Apple SD Gothic Neo">가능</tspan></text>
      <text id="사용자별_옷장을_공유하여_VR방문_VR피팅이_가능" data-name="사용자별 옷장을 공유하여
VR방문, VR피팅이 가능" transform="translate(278 753)" fill="#3379db" font-size="18" font-family="AppleSDGothicNeo-Medium, Apple SD Gothic Neo" font-weight="500"><tspan x="-90.315" y="0">사용자별</tspan><tspan y="0" font-family="Poppins-Medium, Poppins"> </tspan><tspan y="0">옷장을</tspan><tspan y="0" font-family="Poppins-Medium, Poppins"> </tspan><tspan y="0">공유하여</tspan><tspan y="0" font-family="Poppins-Medium, Poppins"></tspan><tspan font-family="Poppins-Medium, Poppins"><tspan x="-85.068" y="32">VR</tspan><tspan y="32" font-family="AppleSDGothicNeo-Medium, Apple SD Gothic Neo">방문</tspan><tspan y="32">, VR</tspan><tspan y="32" font-family="AppleSDGothicNeo-Medium, Apple SD Gothic Neo">피팅이</tspan><tspan y="32"> </tspan><tspan y="32" font-family="AppleSDGothicNeo-Medium, Apple SD Gothic Neo">가능</tspan></tspan></text>
    </g>
  </g>
</svg>
