<svg xmlns="http://www.w3.org/2000/svg" width="1748" height="887" viewBox="0 0 1748 887">
  <g id="그룹_37" data-name="그룹 37" transform="translate(-86 -97)">
    <path id="패스_217" data-name="패스 217" d="M11319.5,797.231V650.122" transform="translate(-9932 165)" fill="none" stroke="#9b9b9b" stroke-width="1"/>
    <path id="패스_212" data-name="패스 212" d="M10963,89V251.305" transform="translate(-9932 165)" fill="none" stroke="#9b9b9b" stroke-width="1"/>
    <path id="패스_211" data-name="패스 211" d="M10806.5,89v55.422" transform="translate(-9932 165)" fill="none" stroke="#9b9b9b" stroke-width="1"/>
    <path id="패스_192" data-name="패스 192" d="M3329-289h945.261" transform="translate(-2769 1039)" fill="none" stroke="#9b9b9b" stroke-width="1"/>
    <path id="패스_196" data-name="패스 196" d="M4024-785h516.5v109.184" transform="translate(-2769 1039)" fill="none" stroke="#9b9b9b" stroke-width="1"/>
    <path id="패스_199" data-name="패스 199" d="M3148-785h304v189" transform="translate(-2769 1039)" fill="none" stroke="#9b9b9b" stroke-width="1"/>
    <path id="패스_200" data-name="패스 200" d="M3300-859.161v189.025" transform="translate(-2769 1039)" fill="none" stroke="#9b9b9b" stroke-width="1"/>
    <path id="패스_202" data-name="패스 202" d="M2953.5-658V-859.161h1339V-786.1" transform="translate(-2769 1040)" fill="none" stroke="#9b9b9b" stroke-width="1"/>
    <rect id="사각형_539" data-name="사각형 539" width="125" height="38" rx="4" transform="translate(889 97)"/>
    <rect id="사각형_541" data-name="사각형 541" width="125" height="38" rx="4" transform="translate(889 162)"/>
    <rect id="사각형_542" data-name="사각형 542" width="125" height="38" rx="4" transform="translate(812 235)" fill="#575757"/>
    <rect id="사각형_543" data-name="사각형 543" width="125" height="38" rx="4" transform="translate(122 235)" fill="#575757"/>
    <rect id="사각형_544" data-name="사각형 544" width="125" height="38" rx="4" transform="translate(316 235)" fill="#575757"/>
    <rect id="사각형_545" data-name="사각형 545" width="125" height="38" rx="4" transform="translate(122 362)" fill="#575757"/>
    <rect id="사각형_546" data-name="사각형 546" width="125" height="38" rx="4" transform="translate(812 290)" fill="#9b9b9b"/>
    <rect id="사각형_547" data-name="사각형 547" width="125" height="38" rx="4" transform="translate(122 290)" fill="#9b9b9b"/>
    <rect id="사각형_548" data-name="사각형 548" width="125" height="38" rx="4" transform="translate(969 235)" fill="#575757"/>
    <rect id="사각형_551" data-name="사각형 551" width="125" height="38" rx="4" transform="translate(1201 235)" fill="#575757"/>
    <rect id="사각형_552" data-name="사각형 552" width="125" height="38" rx="4" transform="translate(1709 235)" fill="#575757"/>
    <rect id="사각형_553" data-name="사각형 553" width="125" height="38" rx="4" transform="translate(468 235)" fill="#575757"/>
    <rect id="사각형_554" data-name="사각형 554" width="125" height="38" rx="4" transform="translate(621 235)" fill="#575757"/>
    <rect id="사각형_555" data-name="사각형 555" width="125" height="38" rx="4" transform="translate(969 290)" fill="#9b9b9b"/>
    <rect id="사각형_557" data-name="사각형 557" width="125" height="38" rx="4" transform="translate(1325 796)" fill="#9b9b9b"/>
    <rect id="사각형_558" data-name="사각형 558" width="125" height="38" rx="4" transform="translate(1462 796)" fill="#9b9b9b"/>
    <rect id="사각형_562" data-name="사각형 562" width="125" height="38" rx="4" transform="translate(1709 290)" fill="#9b9b9b"/>
    <rect id="사각형_563" data-name="사각형 563" width="125" height="38" rx="4" transform="translate(1709 345)" fill="#9b9b9b"/>
    <rect id="사각형_564" data-name="사각형 564" width="125" height="38" rx="4" transform="translate(468 290)" fill="#9b9b9b"/>
    <rect id="사각형_565" data-name="사각형 565" width="125" height="38" rx="4" transform="translate(621 290)" fill="#9b9b9b"/>
    <rect id="사각형_566" data-name="사각형 566" width="125" height="38" rx="4" transform="translate(969 345)" fill="#9b9b9b"/>
    <rect id="사각형_569" data-name="사각형 569" width="125" height="38" rx="4" transform="translate(468 345)" fill="#9b9b9b"/>
    <rect id="사각형_570" data-name="사각형 570" width="125" height="38" rx="4" transform="translate(621 345)" fill="#9b9b9b"/>
    <g id="사각형_571" data-name="사각형 571" transform="translate(969 398)" fill="#fff" stroke="#9b9b9b" stroke-width="1">
      <rect width="125" height="38" rx="4" stroke="none"/>
      <rect x="0.5" y="0.5" width="124" height="37" rx="3.5" fill="none"/>
    </g>
    <g id="사각형_572" data-name="사각형 572" transform="translate(1177 284)" fill="#fff" stroke="#9b9b9b" stroke-width="1">
      <rect width="174" height="181" rx="4" stroke="none"/>
      <rect x="0.5" y="0.5" width="173" height="180" rx="3.5" fill="none"/>
    </g>
    <g id="사각형_573" data-name="사각형 573" transform="translate(1369 351)" fill="#fff" stroke="#9b9b9b" stroke-width="1">
      <rect width="315" height="306" rx="4" stroke="none"/>
      <rect x="0.5" y="0.5" width="314" height="305" rx="3.5" fill="none"/>
    </g>
    <g id="사각형_574" data-name="사각형 574" transform="translate(1325 846)" fill="#fff" stroke="#9b9b9b" stroke-width="1">
      <rect width="125" height="38" rx="4" stroke="none"/>
      <rect x="0.5" y="0.5" width="124" height="37" rx="3.5" fill="none"/>
    </g>
    <g id="사각형_575" data-name="사각형 575" transform="translate(1325 896)" fill="#fff" stroke="#9b9b9b" stroke-width="1">
      <rect width="125" height="38" rx="4" stroke="none"/>
      <rect x="0.5" y="0.5" width="124" height="37" rx="3.5" fill="none"/>
    </g>
    <g id="사각형_576" data-name="사각형 576" transform="translate(1325 946)" fill="#fff" stroke="#9b9b9b" stroke-width="1">
      <rect width="125" height="38" rx="4" stroke="none"/>
      <rect x="0.5" y="0.5" width="124" height="37" rx="3.5" fill="none"/>
    </g>
    <g id="사각형_577" data-name="사각형 577" transform="translate(621 443)" fill="none" stroke="#9b9b9b" stroke-width="1">
      <rect width="125" height="38" rx="4" stroke="none"/>
      <rect x="0.5" y="0.5" width="124" height="37" rx="3.5" fill="none"/>
    </g>
    <rect id="사각형_578" data-name="사각형 578" width="125" height="38" rx="4" transform="translate(468 162)"/>
    <rect id="사각형_579" data-name="사각형 579" width="125" height="38" rx="4" transform="translate(122 162)"/>
    <rect id="사각형_580" data-name="사각형 580" width="125" height="38" rx="4" transform="translate(1461 162)"/>
    <text id="청소년" transform="translate(930 123)" fill="#fff" font-size="16" font-family="NotoSansCJKkr-Medium, Noto Sans CJK KR" font-weight="500"><tspan x="0" y="0">청소년</tspan></text>
    <text id="용돈관리" transform="translate(922 188)" fill="#fff" font-size="16" font-family="NotoSansCJKkr-Medium, Noto Sans CJK KR" font-weight="500"><tspan x="0" y="0">용돈관리</tspan></text>
    <text id="저축통장" transform="translate(845 261)" fill="#fff" font-size="16" font-family="NotoSansCJKkr-Medium, Noto Sans CJK KR" font-weight="500"><tspan x="0" y="0">저축통장</tspan></text>
    <text id="사용중인_카드" data-name="사용중인 카드" transform="translate(139 261)" fill="#fff" font-size="16" font-family="NotoSansCJKkr-Medium, Noto Sans CJK KR" font-weight="500"><tspan x="0" y="0">사용중인 카드</tspan></text>
    <text id="친구에게_송금" data-name="친구에게 송금" transform="translate(333 261)" fill="#fff" font-size="16" font-family="NotoSansCJKkr-Medium, Noto Sans CJK KR" font-weight="500"><tspan x="0" y="0">친구에게 송금</tspan></text>
    <text id="교육_콘텐츠" data-name="교육 콘텐츠" transform="translate(146 388)" fill="#fff" font-size="16" font-family="NotoSansCJKkr-Medium, Noto Sans CJK KR" font-weight="500"><tspan x="0" y="0">교육 콘텐츠</tspan></text>
    <text id="미션" transform="translate(860 316)" fill="#fff" font-size="16" font-family="NotoSansCJKkr-Medium, Noto Sans CJK KR" font-weight="500"><tspan x="0" y="0">미션</tspan></text>
    <text id="오늘_누적_사용내역" data-name="오늘 누적 사용내역" transform="translate(130 315)" fill="#fff" font-size="14" font-family="NotoSansCJKkr-Medium, Noto Sans CJK KR" font-weight="500"><tspan x="0" y="0">오늘 누적 사용내역</tspan></text>
    <text id="용돈기입장" transform="translate(995 261)" fill="#fff" font-size="16" font-family="NotoSansCJKkr-Medium, Noto Sans CJK KR" font-weight="500"><tspan x="0" y="0">용돈기입장</tspan></text>
    <text id="AI추천_콘텐츠" data-name="AI추천 콘텐츠" transform="translate(1218 261)" fill="#fff" font-size="16" font-family="NotoSansCJKkr-Medium, Noto Sans CJK KR" font-weight="500"><tspan x="0" y="0">AI</tspan><tspan y="0">추천 콘텐츠</tspan></text>
    <text id="포인트" transform="translate(1750 261)" fill="#fff" font-size="16" font-family="NotoSansCJKkr-Medium, Noto Sans CJK KR" font-weight="500"><tspan x="0" y="0">포인트</tspan></text>
    <text id="용돈신청" transform="translate(501 261)" fill="#fff" font-size="16" font-family="NotoSansCJKkr-Medium, Noto Sans CJK KR" font-weight="500"><tspan x="0" y="0">용돈신청</tspan></text>
    <text id="용돈함" transform="translate(662 261)" fill="#fff" font-size="16" font-family="NotoSansCJKkr-Medium, Noto Sans CJK KR" font-weight="500"><tspan x="0" y="0">용돈함</tspan></text>
    <text id="내역_입력" data-name="내역 입력" transform="translate(1001 316)" fill="#fff" font-size="16" font-family="NotoSansCJKkr-Medium, Noto Sans CJK KR" font-weight="500"><tspan x="0" y="0">내역 입력</tspan></text>
    <text id="경제_DNA" data-name="경제 DNA" transform="translate(1355 822)" fill="#fff" font-size="16" font-family="NotoSansCJKkr-Medium, Noto Sans CJK KR" font-weight="500"><tspan x="0" y="0">경제 </tspan><tspan y="0">DNA</tspan></text>
    <text id="자녀적금" transform="translate(1495 822)" fill="#fff" font-size="16" font-family="NotoSansCJKkr-Medium, Noto Sans CJK KR" font-weight="500"><tspan x="0" y="0">자녀적금</tspan></text>
    <text id="쿠폰함" transform="translate(1750 316)" fill="#fff" font-size="16" font-family="NotoSansCJKkr-Medium, Noto Sans CJK KR" font-weight="500"><tspan x="0" y="0">쿠폰함</tspan></text>
    <text id="쇼핑" transform="translate(1757 371)" fill="#fff" font-size="16" font-family="NotoSansCJKkr-Medium, Noto Sans CJK KR" font-weight="500"><tspan x="0" y="0">쇼핑</tspan></text>
    <text id="신청_이력" data-name="신청 이력" transform="translate(500 316)" fill="#fff" font-size="16" font-family="NotoSansCJKkr-Medium, Noto Sans CJK KR" font-weight="500"><tspan x="0" y="0">신청 이력</tspan></text>
    <text id="사용_내역" data-name="사용 내역" transform="translate(653 316)" fill="#fff" font-size="16" font-family="NotoSansCJKkr-Medium, Noto Sans CJK KR" font-weight="500"><tspan x="0" y="0">사용 내역</tspan></text>
    <text id="용돈_사용분석" data-name="용돈 사용분석" transform="translate(986 371)" fill="#fff" font-size="16" font-family="NotoSansCJKkr-Medium, Noto Sans CJK KR" font-weight="500"><tspan x="0" y="0">용돈 사용분석</tspan></text>
    <text id="필요한_이유와_금액을_설정하여_부모님께_요청할_수_있음" data-name="필요한 이유와 금액을
설정하여
부모님께 요청할 수 있음" transform="translate(529 406)" fill="#939393" font-size="14" font-family="NotoSansCJKkr-Medium, Noto Sans CJK KR" font-weight="500"><tspan x="-61.11" y="0">필요한 이유와 금액을</tspan><tspan x="-25.76" y="22">설정하여</tspan><tspan x="-69.125" y="44">부모님께 요청할 수 있음</tspan></text>
    <text id="_00원이_사용되었습니다_용돈기입장에_작성하러_갈까요_" data-name="“00원이 사용되었습니다”
“용돈기입장에 작성하러 갈까요?&quot;" transform="translate(683 502)" fill="#939393" font-size="14" font-family="NotoSansCJKkr-Medium, Noto Sans CJK KR" font-weight="500"><tspan x="-74.767" y="0">“00원이 사용되었습니다”</tspan><tspan x="-97.559" y="22">“용돈기입장에 작성하러 갈까요?&quot;</tspan></text>
    <text id="예시_하루에_500원씩_저금하기_가상에_캐릭터_저금통도_마련" data-name="예시) 하루에 500원씩 저금하기
가상에 캐릭터 저금통도 마련" transform="translate(871 350)" fill="#939393" font-size="14" font-family="NotoSansCJKkr-Medium, Noto Sans CJK KR" font-weight="500"><tspan x="-90.02" y="0">예시) 하루에 500원씩 저금하기</tspan><tspan x="-82.005" y="22">가상에 캐릭터 저금통도 마련</tspan></text>
    <text id="_7월_소비_데이터가_도착하였습니다_평균_소비금액은_0000입니다_" data-name="“7월 소비 데이터가 도착하였습니다”
“평균 소비금액은 0000입니다&quot;" transform="translate(1031 458)" fill="#939393" font-size="14" font-family="NotoSansCJKkr-Medium, Noto Sans CJK KR" font-weight="500"><tspan x="-106.127" y="0">“7월 소비 데이터가 도착하였습니다”</tspan><tspan x="-90.762" y="22">“평균 소비금액은 0000입니다&quot;</tspan></text>
    <text id="_-_소비_데이터_기반으로_콘텐츠_추천_상단의_노출" data-name="- 소비 데이터 기반으로
   콘텐츠 추천, 상단의 노출" transform="translate(1186 304)" fill="#838383" font-size="12" font-family="NotoSansCJKkr-Regular, Noto Sans CJK KR"><tspan x="0" y="0">- 소비 데이터 기반으로</tspan><tspan x="0" y="18" xml:space="preserve">   콘텐츠 추천, 상단의 노출</tspan></text>
    <text id="_화폐_환율_다양한_세계_화폐_해외여행시_환전_해외에서의_경제활동_금융의_변화_금융_바로_알기_현재를_위한_소비_미래를_위한_소비_변화하는_금융_우리_경제_경제_위기_세계_경제_탐구_시장경제_원리_퀴즈_포함" data-name="&lt;화폐&gt;
환율, 다양한 세계 화폐
해외여행시 환전
해외에서의 경제활동

&lt;금융의 변화&gt;
금융 바로 알기
현재를 위한 소비
미래를 위한 소비
변화하는 금융

&lt;우리 경제&gt;
경제 위기
세계 경제 탐구
시장경제 원리
*퀴즈 포함" transform="translate(1378 371)" fill="#838383" font-size="12" font-family="NotoSansCJKkr-Regular, Noto Sans CJK KR"><tspan x="0" y="0">&lt;화폐&gt;</tspan><tspan x="0" y="18">환율, 다양한 세계 화폐</tspan><tspan x="0" y="36">해외여행시 환전</tspan><tspan x="0" y="54">해외에서의 경제활동</tspan><tspan x="0" y="72"></tspan><tspan x="0" y="90">&lt;금융의 변화&gt;</tspan><tspan x="0" y="108">금융 바로 알기</tspan><tspan x="0" y="126">현재를 위한 소비</tspan><tspan x="0" y="144">미래를 위한 소비</tspan><tspan x="0" y="162">변화하는 금융</tspan><tspan x="0" y="180"></tspan><tspan x="0" y="198">&lt;우리 경제&gt;</tspan><tspan x="0" y="216">경제 위기</tspan><tspan x="0" y="234">세계 경제 탐구</tspan><tspan x="0" y="252">시장경제 원리</tspan><tspan x="0" y="270">*퀴즈 포함</tspan></text>
    <text id="_은행_금융과_금융회사의_역할_은행_속_직업_신용_신용카드_소비와_저축의_중요성_금융의_위험_자기_책임_의식_노동법_계약의_의미_인플레이션이_실업에_미치는_영향_아르바이트시_꼭_알아야_할_법_소득_관리_팁" data-name="&lt;은행&gt;
금융과 금융회사의 역할
은행 속 직업

&lt;신용&gt;
신용카드
소비와 저축의 중요성
금융의 위험
자기 책임 의식

&lt;노동법&gt;
계약의 의미
인플레이션이 실업에 미치는 영향
아르바이트시 꼭 알아야 할 법
소득 관리 팁" transform="translate(1513 371)" fill="#838383" font-size="12" font-family="NotoSansCJKkr-Regular, Noto Sans CJK KR"><tspan x="0" y="0">&lt;은행&gt;</tspan><tspan x="0" y="18">금융과 금융회사의 역할</tspan><tspan x="0" y="36">은행 속 직업</tspan><tspan x="0" y="54"></tspan><tspan x="0" y="72">&lt;신용&gt;</tspan><tspan x="0" y="90">신용카드</tspan><tspan x="0" y="108">소비와 저축의 중요성</tspan><tspan x="0" y="126">금융의 위험</tspan><tspan x="0" y="144">자기 책임 의식</tspan><tspan x="0" y="162"></tspan><tspan x="0" y="180">&lt;노동법&gt;</tspan><tspan x="0" y="198">계약의 의미</tspan><tspan x="0" y="216">인플레이션이 실업에 미치는 영향</tspan><tspan x="0" y="234">아르바이트시 꼭 알아야 할 법</tspan><tspan x="0" y="252">소득 관리 팁</tspan></text>
    <text id="_-_콘텐츠_이용_시_하루_최대_100point_제공" data-name="- 콘텐츠 이용 시
   하루 최대 100point 제공" transform="translate(1186 348)" fill="#838383" font-size="12" font-family="NotoSansCJKkr-Regular, Noto Sans CJK KR"><tspan x="0" y="0">- 콘텐츠 이용 시</tspan><tspan x="0" y="18" xml:space="preserve">   하루 최대 100</tspan><tspan y="18">point </tspan><tspan y="18">제공</tspan></text>
    <text id="_-_예시1._저축통장_개설한_A군_이자율_통장의_종류_강의_-_예시2._아르바이트_시작한_B양_최저_시급_청소년_노동법_강의" data-name="- 예시1. 저축통장 개설한 A군,
   이자율, 통장의 종류 강의
- 예시2. 아르바이트 시작한 B양,
   최저 시급, 청소년 노동법 강의" transform="translate(1186 394)" fill="#838383" font-size="12" font-family="NotoSansCJKkr-Regular, Noto Sans CJK KR"><tspan x="0" y="0">- 예시1. 저축통장 개설한 </tspan><tspan y="0">A</tspan><tspan y="0">군,</tspan><tspan x="0" y="18" xml:space="preserve">   이자율, 통장의 종류 강의</tspan><tspan x="0" y="36">- 예시2. 아르바이트 시작한 </tspan><tspan y="36">B</tspan><tspan y="36">양,</tspan><tspan x="0" y="54" xml:space="preserve">   최저 시급, 청소년 노동법 강의</tspan></text>
    <text id="용돈_신청하기" data-name="용돈 신청하기" transform="translate(485 371)" fill="#fff" font-size="16" font-family="NotoSansCJKkr-Medium, Noto Sans CJK KR" font-weight="500"><tspan x="0" y="0">용돈 신청하기</tspan></text>
    <text id="교통비_내역" data-name="교통비 내역" transform="translate(645 371)" fill="#fff" font-size="16" font-family="NotoSansCJKkr-Medium, Noto Sans CJK KR" font-weight="500"><tspan x="0" y="0">교통비 내역</tspan></text>
    <text id="한달_소비_데이터" data-name="한달 소비 데이터" transform="translate(977 424)" fill="#838383" font-size="16" font-family="NotoSansCJKkr-Medium, Noto Sans CJK KR" font-weight="500"><tspan x="0" y="0">한달 소비 데이터</tspan></text>
    <text id="경제지식수준" transform="translate(1344 872)" fill="#838383" font-size="16" font-family="NotoSansCJKkr-Medium, Noto Sans CJK KR" font-weight="500"><tspan x="0" y="0">경제지식수준</tspan></text>
    <text id="자녀의_저축" data-name="자녀의 저축" transform="translate(1349 922)" fill="#838383" font-size="16" font-family="NotoSansCJKkr-Medium, Noto Sans CJK KR" font-weight="500"><tspan x="0" y="0">자녀의 저축</tspan></text>
    <text id="선물보내기" transform="translate(1351 972)" fill="#838383" font-size="16" font-family="NotoSansCJKkr-Medium, Noto Sans CJK KR" font-weight="500"><tspan x="0" y="0">선물보내기</tspan></text>
    <text id="소비알람" transform="translate(654 469)" fill="#838383" font-size="16" font-family="NotoSansCJKkr-Medium, Noto Sans CJK KR" font-weight="500"><tspan x="0" y="0">소비알람</tspan></text>
    <text id="내지갑" transform="translate(509 188)" fill="#fff" font-size="16" font-family="NotoSansCJKkr-Medium, Noto Sans CJK KR" font-weight="500"><tspan x="0" y="0">내지갑</tspan></text>
    <text id="홈" transform="translate(177 188)" fill="#fff" font-size="16" font-family="NotoSansCJKkr-Medium, Noto Sans CJK KR" font-weight="500"><tspan x="0" y="0">홈</tspan></text>
    <text id="경제스쿨" transform="translate(1494 188)" fill="#fff" font-size="16" font-family="NotoSansCJKkr-Medium, Noto Sans CJK KR" font-weight="500"><tspan x="0" y="0">경제스쿨</tspan></text>
    <rect id="사각형_583" data-name="사각형 583" width="198" height="23" transform="translate(86 332)" fill="#fff"/>
    <text id="사용한_0건_000원_사용내역_표기" data-name="사용한 0건, 000원 사용내역 표기" transform="translate(90 348)" fill="#939393" font-size="14" font-family="NotoSansCJKkr-Medium, Noto Sans CJK KR" font-weight="500"><tspan x="0" y="0">사용한 0건, 000원 사용내역 표기</tspan></text>
    <rect id="사각형_584" data-name="사각형 584" width="125" height="42" transform="translate(621 390)" fill="#fff"/>
    <text id="고정된_금액으로_부모님께서_자동이체" data-name="고정된 금액으로
부모님께서 자동이체" transform="translate(683 406)" fill="#939393" font-size="14" font-family="NotoSansCJKkr-Medium, Noto Sans CJK KR" font-weight="500"><tspan x="-46.655" y="0">고정된 금액으로</tspan><tspan x="-59.535" y="22">부모님께서 자동이체</tspan></text>
    <path id="패스_203" data-name="패스 203" d="M4276.5-270v26.931" transform="translate(-2752 1039)" fill="none" stroke="#9b9b9b" stroke-width="1"/>
    <rect id="사각형_585" data-name="사각형 585" width="125" height="38" rx="4" transform="translate(1599 796)" fill="#9b9b9b"/>
    <text id="자녀보험" transform="translate(1632 822)" fill="#fff" font-size="16" font-family="NotoSansCJKkr-Medium, Noto Sans CJK KR" font-weight="500"><tspan x="0" y="0">자녀보험</tspan></text>
    <path id="패스_193" data-name="패스 193" d="M3309.5-289v114.959" transform="translate(-2778 1039)" fill="none" stroke="#9b9b9b" stroke-width="1"/>
    <path id="패스_201" data-name="패스 201" d="M3729.5-363v194.239" transform="translate(-2777 1044)" fill="none" stroke="#9b9b9b" stroke-width="1"/>
    <rect id="사각형_556" data-name="사각형 556" width="125" height="38" rx="4" transform="translate(890 797)" fill="#9b9b9b"/>
    <rect id="사각형_559" data-name="사각형 559" width="125" height="38" rx="4" transform="translate(468 796)" fill="#9b9b9b"/>
    <rect id="사각형_567" data-name="사각형 567" width="125" height="38" rx="4" transform="translate(890 852)" fill="#9b9b9b"/>
    <rect id="사각형_568" data-name="사각형 568" width="125" height="38" rx="4" transform="translate(468 851)" fill="#9b9b9b"/>
    <text id="정기적인_설정" data-name="정기적인 설정" transform="translate(907 823)" fill="#fff" font-size="16" font-family="NotoSansCJKkr-Medium, Noto Sans CJK KR" font-weight="500"><tspan x="0" y="0">정기적인 설정</tspan></text>
    <text id="송금페이지" transform="translate(494 822)" fill="#fff" font-size="16" font-family="NotoSansCJKkr-Medium, Noto Sans CJK KR" font-weight="500"><tspan x="0" y="0">송금페이지</tspan></text>
    <text id="자녀_용돈_내역" data-name="자녀 용돈 내역" transform="translate(905 878)" fill="#fff" font-size="16" font-family="NotoSansCJKkr-Medium, Noto Sans CJK KR" font-weight="500"><tspan x="0" y="0">자녀 용돈 내역</tspan></text>
    <text id="용돈신청함" transform="translate(494 877)" fill="#fff" font-size="16" font-family="NotoSansCJKkr-Medium, Noto Sans CJK KR" font-weight="500"><tspan x="0" y="0">용돈신청함</tspan></text>
    <text id="아이들에_용돈_신청모음" data-name="아이들에 용돈 신청모음" transform="translate(464 908)" fill="#939393" font-size="14" font-family="NotoSansCJKkr-Medium, Noto Sans CJK KR" font-weight="500"><tspan x="0" y="0">아이들에 용돈 신청모음</tspan></text>
    <text id="언제_얼마를_용돈을_줬는지" data-name="언제, 얼마를 용돈을 줬는지" transform="translate(875 910)" fill="#939393" font-size="14" font-family="NotoSansCJKkr-Medium, Noto Sans CJK KR" font-weight="500"><tspan x="0" y="0">언제, 얼마를 용돈을 줬는지</tspan></text>
    <path id="패스_213" data-name="패스 213" d="M10884,35l-77.925,35.759" transform="translate(-9932 165)" fill="none" stroke="#9b9b9b" stroke-width="1"/>
    <path id="패스_214" data-name="패스 214" d="M10806.074,35,10884,70.759" transform="translate(-9854.074 165)" fill="none" stroke="#9b9b9b" stroke-width="1"/>
    <path id="패스_215" data-name="패스 215" d="M11370.5,137l45.03-15.845,38.5-13.549" transform="translate(-9932 165)" fill="none" stroke="#9b9b9b" stroke-width="1"/>
    <path id="패스_216" data-name="패스 216" d="M11454.035,137,11409,121.155l-38.5-13.549" transform="translate(-9847 165)" fill="none" stroke="#9b9b9b" stroke-width="1"/>
    <rect id="사각형_550" data-name="사각형 550" width="125" height="38" rx="4" transform="translate(1461 235)" fill="#575757"/>
    <text id="전체_콘텐츠" data-name="전체 콘텐츠" transform="translate(1485 261)" fill="#fff" font-size="16" font-family="NotoSansCJKkr-Medium, Noto Sans CJK KR" font-weight="500"><tspan x="0" y="0">전체 콘텐츠</tspan></text>
    <rect id="사각형_560" data-name="사각형 560" width="125" height="38" rx="4" transform="translate(1376 302)" fill="#9b9b9b"/>
    <rect id="사각형_561" data-name="사각형 561" width="125" height="38" rx="4" transform="translate(1549 302)" fill="#9b9b9b"/>
    <text id="중등" transform="translate(1424 328)" fill="#fff" font-size="16" font-family="NotoSansCJKkr-Medium, Noto Sans CJK KR" font-weight="500"><tspan x="0" y="0">중등</tspan></text>
    <text id="고등" transform="translate(1597 328)" fill="#fff" font-size="16" font-family="NotoSansCJKkr-Medium, Noto Sans CJK KR" font-weight="500"><tspan x="0" y="0">고등</tspan></text>
    <rect id="사각형_540" data-name="사각형 540" width="125" height="38" rx="4" transform="translate(890 657)"/>
    <text id="부모님" transform="translate(931 683)" fill="#fff" font-size="16" font-family="NotoSansCJKkr-Medium, Noto Sans CJK KR" font-weight="500"><tspan x="0" y="0">부모님</tspan></text>
    <rect id="사각형_581" data-name="사각형 581" width="125" height="38" rx="4" transform="translate(890 731)" fill="#575757"/>
    <text id="용돈설정" transform="translate(923 757)" fill="#fff" font-size="16" font-family="NotoSansCJKkr-Medium, Noto Sans CJK KR" font-weight="500"><tspan x="0" y="0">용돈설정</tspan></text>
    <rect id="사각형_582" data-name="사각형 582" width="125" height="38" rx="4" transform="translate(468 732)" fill="#575757"/>
    <text id="용돈주기" transform="translate(501 758)" fill="#fff" font-size="16" font-family="NotoSansCJKkr-Medium, Noto Sans CJK KR" font-weight="500"><tspan x="0" y="0">용돈주기</tspan></text>
    <path id="패스_218" data-name="패스 218" d="M11319.5,630.931l137.369-27.359" transform="translate(-9932 165)" fill="none" stroke="#9b9b9b" stroke-width="1"/>
    <path id="패스_219" data-name="패스 219" d="M11456.869,630.931,11319.5,603.573" transform="translate(-9794.631 165)" fill="none" stroke="#9b9b9b" stroke-width="1"/>
    <rect id="사각형_549" data-name="사각형 549" width="125" height="38" rx="4" transform="translate(1462 731)" fill="#575757"/>
    <text id="자녀경제" transform="translate(1495 757)" fill="#fff" font-size="16" font-family="NotoSansCJKkr-Medium, Noto Sans CJK KR" font-weight="500"><tspan x="0" y="0">자녀경제</tspan></text>
  </g>
</svg>
