<svg xmlns="http://www.w3.org/2000/svg" xmlns:xlink="http://www.w3.org/1999/xlink" width="1117" height="366" viewBox="0 0 1117 366">
  <defs>
    <filter id="타원_385" x="797" y="46" width="320" height="320" filterUnits="userSpaceOnUse">
      <feOffset dy="3" input="SourceAlpha"/>
      <feGaussianBlur stdDeviation="20" result="blur"/>
      <feFlood flood-color="#fff" flood-opacity="0.161"/>
      <feComposite operator="in" in2="blur"/>
      <feComposite in="SourceGraphic"/>
    </filter>
  </defs>
  <g id="그룹_2663" data-name="그룹 2663" transform="translate(-451 -3261)">
    <g transform="matrix(1, 0, 0, 1, 451, 3261)" filter="url(#타원_385)">
      <circle id="타원_385-2" data-name="타원 385" cx="100" cy="100" r="100" transform="translate(857 103)" fill="#fff"/>
    </g>
    <text id="올바른_경제교육과_경제습관을_채워_똑똑한_소비_생활" data-name="올바른 경제교육과
경제습관을 채워
똑똑한 소비 생활" transform="translate(1408 3443)" font-size="18" font-family="AppleSDGothicNeo-Bold, Apple SD Gothic Neo" font-weight="700"><tspan x="-64.647" y="0">올바른 경제교육과</tspan><tspan x="-56.862" y="28">경제습관을 채워</tspan><tspan x="-59.229" y="56">똑똑한 소비 생활</tspan></text>
    <text id="Painpoint" transform="translate(601 3277)" fill="#e3e3e3" font-size="18" font-family="AppleSDGothicNeo-Bold, Apple SD Gothic Neo" font-weight="700"><tspan x="-38.286" y="0">Painpoint</tspan></text>
    <text id="Solution" transform="translate(1020 3277)" fill="#e3e3e3" font-size="18" font-family="AppleSDGothicNeo-Bold, Apple SD Gothic Neo" font-weight="700"><tspan x="-33.129" y="0">Solution</tspan></text>
    <text id="Goal" transform="translate(1408 3277)" fill="#e3e3e3" font-size="18" font-family="AppleSDGothicNeo-Bold, Apple SD Gothic Neo" font-weight="700"><tspan x="-17.883" y="0">Goal</tspan></text>
    <g id="사각형_3547" data-name="사각형 3547" transform="translate(877 3305)" stroke="#535252" stroke-width="1">
      <rect width="300" height="94" rx="8" stroke="none"/>
      <rect x="0.5" y="0.5" width="299" height="93" rx="7.5" fill="none"/>
    </g>
    <g id="사각형_3546" data-name="사각형 3546" transform="translate(877 3417)" stroke="#535252" stroke-width="1">
      <rect width="300" height="94" rx="8" stroke="none"/>
      <rect x="0.5" y="0.5" width="299" height="93" rx="7.5" fill="none"/>
    </g>
    <g id="사각형_3545" data-name="사각형 3545" transform="translate(877 3531)" stroke="#535252" stroke-width="1">
      <rect width="300" height="94" rx="8" stroke="none"/>
      <rect x="0.5" y="0.5" width="299" height="93" rx="7.5" fill="none"/>
    </g>
    <g id="사각형_3577" data-name="사각형 3577" transform="translate(451 3531)" stroke="#532f21" stroke-width="1">
      <rect width="300" height="94" rx="8" stroke="none"/>
      <rect x="0.5" y="0.5" width="299" height="93" rx="7.5" fill="none"/>
    </g>
    <g id="사각형_3578" data-name="사각형 3578" transform="translate(451 3417)" stroke="#532f21" stroke-width="1">
      <rect width="300" height="94" rx="8" stroke="none"/>
      <rect x="0.5" y="0.5" width="299" height="93" rx="7.5" fill="none"/>
    </g>
    <g id="사각형_3579" data-name="사각형 3579" transform="translate(451 3305)" stroke="#532f21" stroke-width="1">
      <rect width="300" height="94" rx="8" stroke="none"/>
      <rect x="0.5" y="0.5" width="299" height="93" rx="7.5" fill="none"/>
    </g>
    <text id="경제교육_컨텐츠_제공" data-name="경제교육 컨텐츠 제공" transform="translate(898 3333)" fill="#fff" font-size="16" font-family="AppleSDGothicNeo-Bold, Apple SD Gothic Neo" font-weight="700"><tspan x="0" y="0">경제교육 컨텐츠 제공</tspan></text>
    <text id="경제_교육의_부재" data-name="경제 교육의 부재" transform="translate(537 3360)" fill="#ef8c63" font-size="18" font-family="AppleSDGothicNeo-Bold, Apple SD Gothic Neo" font-weight="700"><tspan x="0" y="0">경제 교육의 부재</tspan></text>
    <text id="합리적_소비를_돕는_서비스" data-name="합리적 소비를 돕는 서비스" transform="translate(898 3448)" fill="#fff" font-size="16" font-family="AppleSDGothicNeo-Bold, Apple SD Gothic Neo" font-weight="700"><tspan x="0" y="0">합리적 소비를 돕는 서비스</tspan></text>
    <text id="경제_지식_체험할_곳_부족" data-name="경제 지식 체험할 곳 부족" transform="translate(512 3470)" fill="#ef8c63" font-size="18" font-family="AppleSDGothicNeo-Bold, Apple SD Gothic Neo" font-weight="700"><tspan x="0" y="0">경제 지식 체험할 곳 부족</tspan></text>
    <text id="경제습관을_기르는_용돈_신청_기능" data-name="경제습관을 기르는 용돈 신청 기능" transform="translate(898 3562)" fill="#fff" font-size="16" font-family="AppleSDGothicNeo-Bold, Apple SD Gothic Neo" font-weight="700"><tspan x="0" y="0">경제습관을 기르는 용돈 신청 기능</tspan></text>
    <text id="지식_부족으로_목적_없는_소비" data-name="지식 부족으로 목적 없는 소비" transform="translate(498 3584)" fill="#ef8c63" font-size="18" font-family="AppleSDGothicNeo-Bold, Apple SD Gothic Neo" font-weight="700"><tspan x="0" y="0">지식 부족으로 목적 없는 소비</tspan></text>
    <text id="_-_나이_상황별_최적화된_교육_콘텐츠_-_콘텐츠_재생시_포인트_제공하여_동기부여" data-name="- 나이, 상황별 최적화된 교육 콘텐츠
- 콘텐츠 재생시 포인트 제공하여 동기부여" transform="translate(898 3358)" fill="#edebeb" font-size="14" font-family="AppleSDGothicNeo-Medium, Apple SD Gothic Neo" font-weight="500"><tspan x="0" y="0">- 나이, 상황별 최적화된 교육 콘텐츠</tspan><tspan x="0" y="22">- 콘텐츠 재생시 포인트 제공하여 동기부여</tspan></text>
    <text id="_-_지출_시_용돈기입장과_소비_데이터_제공_-_미션이_있는_저축통장으로_저축습관_독려" data-name="- 지출 시 용돈기입장과 소비 데이터 제공
- 미션이 있는 저축통장으로 저축습관 독려" transform="translate(898 3473)" fill="#edebeb" font-size="14" font-family="AppleSDGothicNeo-Medium, Apple SD Gothic Neo" font-weight="500"><tspan x="0" y="0">- 지출 시 용돈기입장과 소비 데이터 제공</tspan><tspan x="0" y="22">- 미션이 있는 저축통장으로 저축습관 독려</tspan></text>
    <text id="_-_용돈_필요_시_사용_용도와_금액을_적는_시스템으로_올바른_소비습관_형성을_도와줌" data-name="- 용돈 필요 시 사용 용도와 금액을 적는
  시스템으로 올바른 소비습관 형성을 도와줌" transform="translate(898 3587)" fill="#edebeb" font-size="14" font-family="AppleSDGothicNeo-Medium, Apple SD Gothic Neo" font-weight="500"><tspan x="0" y="0">- 용돈 필요 시 사용 용도와 금액을 적는</tspan><tspan x="0" y="22" xml:space="preserve">  시스템으로 올바른 소비습관 형성을 도와줌</tspan></text>
    <path id="패스_1604" data-name="패스 1604" d="M10106.266,2055.5h62.549l-16.809-15.011" transform="translate(-8895.266 1412.511)" fill="none" stroke="#fff" stroke-width="2"/>
    <path id="패스_1607" data-name="패스 1607" d="M10106.266,2055.5h62.549l-16.809-15.011" transform="translate(-9326.266 1412.511)" fill="none" stroke="#fff" stroke-width="2"/>
  </g>
</svg>
