<svg xmlns="http://www.w3.org/2000/svg" width="1392" height="839" viewBox="0 0 1392 839">
  <g id="그룹_205" data-name="그룹 205" transform="translate(-431 -102)">
    <path id="패스_13" data-name="패스 13" d="M9158,263V721.618" transform="translate(-8160 -64.684)" fill="none" stroke="#50d789" stroke-width="1"/>
    <rect id="사각형_753" data-name="사각형 753" width="188" height="23" transform="translate(904 225)" fill="#fff"/>
    <path id="패스_16" data-name="패스 16" d="M9879,248V711.261" transform="translate(-8160 40)" fill="none" stroke="#50d789" stroke-width="1"/>
    <path id="패스_15" data-name="패스 15" d="M9638,255.7V924.56" transform="translate(-8160 -57.384)" fill="none" stroke="#50d789" stroke-width="1"/>
    <path id="패스_14" data-name="패스 14" d="M9399,255.7V829.151" transform="translate(-8161 -57.384)" fill="none" stroke="#50d789" stroke-width="1"/>
    <path id="패스_12" data-name="패스 12" d="M8791,251V856.614" transform="translate(-8033 -52.684)" fill="none" stroke="#50d789" stroke-width="1"/>
    <text id="식이_요법_정보_제공_및_커뮤니티" data-name="식이 요법 정보 제공 및 커뮤니티" transform="translate(908 243)" fill="#141414" font-size="14" font-family="AppleSDGothicNeo-Medium, Apple SD Gothic Neo" font-weight="500"><tspan x="0" y="0">식이 요법 정보 제공 및 커뮤니티</tspan></text>
    <g id="사각형_26" data-name="사각형 26" transform="translate(672 260)" fill="#fff" stroke="#9a9a9a" stroke-width="1">
      <rect width="172" height="56" rx="5" stroke="none"/>
      <rect x="0.5" y="0.5" width="171" height="55" rx="4.5" fill="none"/>
    </g>
    <rect id="사각형_64" data-name="사각형 64" width="320" height="56" rx="28" transform="translate(958 102)" fill="#50d789"/>
    <g id="사각형_28" data-name="사각형 28" transform="translate(1392 260)" fill="#fff" stroke="#9a9a9a" stroke-width="1">
      <rect width="172" height="56" rx="5" stroke="none"/>
      <rect x="0.5" y="0.5" width="171" height="55" rx="4.5" fill="none"/>
    </g>
    <g id="사각형_29" data-name="사각형 29" transform="translate(1152 260)" fill="#fff" stroke="#9a9a9a" stroke-width="1">
      <rect width="172" height="56" rx="5" stroke="none"/>
      <rect x="0.5" y="0.5" width="171" height="55" rx="4.5" fill="none"/>
    </g>
    <g id="사각형_31" data-name="사각형 31" transform="translate(1152 341)" fill="#fff" stroke="#9a9a9a" stroke-width="1">
      <rect width="172" height="56" rx="5" stroke="none"/>
      <rect x="0.5" y="0.5" width="171" height="55" rx="4.5" fill="none"/>
    </g>
    <g id="사각형_38" data-name="사각형 38" transform="translate(1392 341)" fill="#fff" stroke="#9a9a9a" stroke-width="1">
      <rect width="172" height="56" rx="5" stroke="none"/>
      <rect x="0.5" y="0.5" width="171" height="55" rx="4.5" fill="none"/>
    </g>
    <g id="사각형_45" data-name="사각형 45" transform="translate(1392 451)" fill="#fff" stroke="#9a9a9a" stroke-width="1">
      <rect width="172" height="56" rx="5" stroke="none"/>
      <rect x="0.5" y="0.5" width="171" height="55" rx="4.5" fill="none"/>
    </g>
    <g id="사각형_39" data-name="사각형 39" transform="translate(1633 341)" fill="#fff" stroke="#9a9a9a" stroke-width="1">
      <rect width="172" height="56" rx="5" stroke="none"/>
      <rect x="0.5" y="0.5" width="171" height="55" rx="4.5" fill="none"/>
    </g>
    <g id="사각형_41" data-name="사각형 41" transform="translate(1633 479)" fill="#fff" stroke="#9a9a9a" stroke-width="1">
      <rect width="172" height="56" rx="5" stroke="none"/>
      <rect x="0.5" y="0.5" width="171" height="55" rx="4.5" fill="none"/>
    </g>
    <g id="사각형_42" data-name="사각형 42" transform="translate(1633 560)" fill="#fff" stroke="#9a9a9a" stroke-width="1">
      <rect width="172" height="56" rx="5" stroke="none"/>
      <rect x="0.5" y="0.5" width="171" height="55" rx="4.5" fill="none"/>
    </g>
    <g id="사각형_43" data-name="사각형 43" transform="translate(1633 641)" fill="#fff" stroke="#9a9a9a" stroke-width="1">
      <rect width="172" height="56" rx="5" stroke="none"/>
      <rect x="0.5" y="0.5" width="171" height="55" rx="4.5" fill="none"/>
    </g>
    <g id="사각형_44" data-name="사각형 44" transform="translate(1633 722)" fill="#fff" stroke="#9a9a9a" stroke-width="1">
      <rect width="172" height="56" rx="5" stroke="none"/>
      <rect x="0.5" y="0.5" width="171" height="55" rx="4.5" fill="none"/>
    </g>
    <g id="사각형_65" data-name="사각형 65" transform="translate(672 422)" fill="#fff" stroke="#9a9a9a" stroke-width="1">
      <rect width="172" height="56" rx="5" stroke="none"/>
      <rect x="0.5" y="0.5" width="171" height="55" rx="4.5" fill="none"/>
    </g>
    <g id="사각형_50" data-name="사각형 50" transform="translate(672 503)" fill="#fff" stroke="#9a9a9a" stroke-width="1">
      <rect width="172" height="56" rx="5" stroke="none"/>
      <rect x="0.5" y="0.5" width="171" height="55" rx="4.5" fill="none"/>
    </g>
    <g id="사각형_66" data-name="사각형 66" transform="translate(672 584)" fill="#fff" stroke="#9a9a9a" stroke-width="1">
      <rect width="172" height="56" rx="5" stroke="none"/>
      <rect x="0.5" y="0.5" width="171" height="55" rx="4.5" fill="none"/>
    </g>
    <g id="사각형_35" data-name="사각형 35" transform="translate(912 341)" fill="#fff" stroke="#9a9a9a" stroke-width="1">
      <rect width="172" height="56" rx="5" stroke="none"/>
      <rect x="0.5" y="0.5" width="171" height="55" rx="4.5" fill="none"/>
    </g>
    <g id="사각형_52" data-name="사각형 52" transform="translate(912 475)" fill="#fff" stroke="#9a9a9a" stroke-width="1">
      <rect width="172" height="56" rx="5" stroke="none"/>
      <rect x="0.5" y="0.5" width="171" height="55" rx="4.5" fill="none"/>
    </g>
    <g id="사각형_53" data-name="사각형 53" transform="translate(912 556)" fill="#fff" stroke="#9a9a9a" stroke-width="1">
      <rect width="172" height="56" rx="5" stroke="none"/>
      <rect x="0.5" y="0.5" width="171" height="55" rx="4.5" fill="none"/>
    </g>
    <g id="사각형_54" data-name="사각형 54" transform="translate(912 637)" fill="#fff" stroke="#9a9a9a" stroke-width="1">
      <rect width="172" height="56" rx="5" stroke="none"/>
      <rect x="0.5" y="0.5" width="171" height="55" rx="4.5" fill="none"/>
    </g>
    <g id="사각형_48" data-name="사각형 48" transform="translate(672 665)" fill="#fff" stroke="#9a9a9a" stroke-width="1">
      <rect width="172" height="56" rx="5" stroke="none"/>
      <rect x="0.5" y="0.5" width="171" height="55" rx="4.5" fill="none"/>
    </g>
    <g id="사각형_51" data-name="사각형 51" transform="translate(672 777)" fill="#fff" stroke="#9a9a9a" stroke-width="1">
      <rect width="172" height="56" rx="5" stroke="none"/>
      <rect x="0.5" y="0.5" width="171" height="55" rx="4.5" fill="none"/>
    </g>
    <g id="사각형_32" data-name="사각형 32" transform="translate(1152 422)" fill="#fff" stroke="#9a9a9a" stroke-width="1">
      <rect width="172" height="56" rx="5" stroke="none"/>
      <rect x="0.5" y="0.5" width="171" height="55" rx="4.5" fill="none"/>
    </g>
    <g id="사각형_33" data-name="사각형 33" transform="translate(1152 503)" fill="#fff" stroke="#9a9a9a" stroke-width="1">
      <rect width="172" height="56" rx="5" stroke="none"/>
      <rect x="0.5" y="0.5" width="171" height="55" rx="4.5" fill="none"/>
    </g>
    <g id="사각형_36" data-name="사각형 36" transform="translate(1392 584)" fill="#fff" stroke="#9a9a9a" stroke-width="1">
      <rect width="172" height="56" rx="5" stroke="none"/>
      <rect x="0.5" y="0.5" width="171" height="55" rx="4.5" fill="none"/>
    </g>
    <g id="사각형_74" data-name="사각형 74" transform="translate(1392 830)" fill="#fff" stroke="#9a9a9a" stroke-width="1">
      <rect width="172" height="56" rx="5" stroke="none"/>
      <rect x="0.5" y="0.5" width="171" height="55" rx="4.5" fill="none"/>
    </g>
    <g id="사각형_46" data-name="사각형 46" transform="translate(1152 665)" fill="#fff" stroke="#9a9a9a" stroke-width="1">
      <rect width="172" height="56" rx="5" stroke="none"/>
      <rect x="0.5" y="0.5" width="171" height="55" rx="4.5" fill="none"/>
    </g>
    <g id="사각형_47" data-name="사각형 47" transform="translate(1152 584)" fill="#fff" stroke="#9a9a9a" stroke-width="1">
      <rect width="172" height="56" rx="5" stroke="none"/>
      <rect x="0.5" y="0.5" width="171" height="55" rx="4.5" fill="none"/>
    </g>
    <g id="사각형_71" data-name="사각형 71" transform="translate(1152 746)" fill="#fff" stroke="#9a9a9a" stroke-width="1" stroke-dasharray="3 2">
      <rect width="172" height="56" rx="5" stroke="none"/>
      <rect x="0.5" y="0.5" width="171" height="55" rx="4.5" fill="none"/>
    </g>
    <g id="사각형_75" data-name="사각형 75" transform="translate(1392 668)" fill="#fff" stroke="#9a9a9a" stroke-width="1" stroke-dasharray="3 2">
      <rect width="172" height="56" rx="5" stroke="none"/>
      <rect x="0.5" y="0.5" width="171" height="55" rx="4.5" fill="none"/>
    </g>
    <g id="사각형_76" data-name="사각형 76" transform="translate(1392 749)" fill="#fff" stroke="#9a9a9a" stroke-width="1" stroke-dasharray="3 2">
      <rect width="172" height="56" rx="5" stroke="none"/>
      <rect x="0.5" y="0.5" width="171" height="55" rx="4.5" fill="none"/>
    </g>
    <g id="사각형_67" data-name="사각형 67" transform="translate(672 341)" fill="#fff" stroke="#9a9a9a" stroke-width="1">
      <rect width="172" height="56" rx="5" stroke="none"/>
      <rect x="0.5" y="0.5" width="171" height="55" rx="4.5" fill="none"/>
    </g>
    <g id="사각형_30" data-name="사각형 30" transform="translate(912 260)" fill="#fff" stroke="#9a9a9a" stroke-width="1">
      <rect width="172" height="56" rx="5" stroke="none"/>
      <rect x="0.5" y="0.5" width="171" height="55" rx="4.5" fill="none"/>
    </g>
    <text id="홈" transform="translate(749 297)" fill="#141414" font-size="20" font-family="AppleSDGothicNeo-Bold, Apple SD Gothic Neo" font-weight="700"><tspan x="0" y="0">홈</tspan></text>
    <text id="암환자를_위한_식료품_판매_서비스" data-name="암환자를 위한 식료품 판매 서비스" transform="translate(987 136)" fill="#fff" font-size="20" font-family="AppleSDGothicNeo-Bold, Apple SD Gothic Neo" font-weight="700"><tspan x="0" y="0">암환자를 위한 식료품 판매 서비스</tspan></text>
    <text id="식단짜기" transform="translate(1444 297)" fill="#141414" font-size="20" font-family="AppleSDGothicNeo-Bold, Apple SD Gothic Neo" font-weight="700"><tspan x="0" y="0">식단짜기</tspan></text>
    <text id="카테고리" transform="translate(1204 297)" fill="#141414" font-size="20" font-family="AppleSDGothicNeo-Bold, Apple SD Gothic Neo" font-weight="700"><tspan x="0" y="0">카테고리</tspan></text>
    <text id="채소" transform="translate(1220 378)" fill="#141414" font-size="20" font-family="AppleSDGothicNeo-Medium, Apple SD Gothic Neo" font-weight="500"><tspan x="0" y="0">채소</tspan></text>
    <text id="나의_건강정보" data-name="나의 건강정보" transform="translate(1424 378)" fill="#141414" font-size="20" font-family="AppleSDGothicNeo-Medium, Apple SD Gothic Neo" font-weight="500"><tspan x="0" y="0">나의 건강정보</tspan></text>
    <text id="건강매니저" transform="translate(1435 488)" fill="#141414" font-size="20" font-family="AppleSDGothicNeo-Medium, Apple SD Gothic Neo" font-weight="500"><tspan x="0" y="0">건강매니저</tspan></text>
    <text id="나의_건강관리" data-name="나의 건강관리" transform="translate(1665 378)" fill="#141414" font-size="20" font-family="AppleSDGothicNeo-Medium, Apple SD Gothic Neo" font-weight="500"><tspan x="0" y="0">나의 건강관리</tspan></text>
    <text id="배송정보" transform="translate(1685 516)" fill="#141414" font-size="20" font-family="AppleSDGothicNeo-Medium, Apple SD Gothic Neo" font-weight="500"><tspan x="0" y="0">배송정보</tspan></text>
    <text id="_1:1문의" data-name="1:1문의" transform="translate(1693 597)" fill="#141414" font-size="20" font-family="AppleSDGothicNeo-Medium, Apple SD Gothic Neo" font-weight="500"><tspan x="0" y="0">1:1문의</tspan></text>
    <text id="상품후기" transform="translate(1685 678)" fill="#141414" font-size="20" font-family="AppleSDGothicNeo-Medium, Apple SD Gothic Neo" font-weight="500"><tspan x="0" y="0">상품후기</tspan></text>
    <text id="고객센터" transform="translate(1685 759)" fill="#141414" font-size="20" font-family="AppleSDGothicNeo-Medium, Apple SD Gothic Neo" font-weight="500"><tspan x="0" y="0">고객센터</tspan></text>
    <text id="오늘의_특가" data-name="오늘의 특가" transform="translate(712 459)" fill="#141414" font-size="20" font-family="AppleSDGothicNeo-Medium, Apple SD Gothic Neo" font-weight="500"><tspan x="0" y="0">오늘의 특가</tspan></text>
    <text id="지금_인기있는_제품" data-name="지금 인기있는 제품" transform="translate(683 539)" fill="#141414" font-size="20" font-family="AppleSDGothicNeo-Medium, Apple SD Gothic Neo" font-weight="500"><tspan x="0" y="0">지금 인기있는 제품</tspan></text>
    <text id="신제품" transform="translate(732 620)" fill="#141414" font-size="20" font-family="AppleSDGothicNeo-Medium, Apple SD Gothic Neo" font-weight="500"><tspan x="0" y="0">신제품</tspan></text>
    <text id="오늘의_건강_정보" data-name="오늘의 건강 정보" transform="translate(932 378)" fill="#141414" font-size="20" font-family="AppleSDGothicNeo-Medium, Apple SD Gothic Neo" font-weight="500"><tspan x="0" y="0">오늘의 건강 정보</tspan></text>
    <text id="_00암_뉴스" data-name="00암 뉴스" transform="translate(957 512)" fill="#141414" font-size="20" font-family="AppleSDGothicNeo-Medium, Apple SD Gothic Neo" font-weight="500"><tspan x="0" y="0">00암 뉴스</tspan></text>
    <text id="완치후기" transform="translate(964 593)" fill="#141414" font-size="20" font-family="AppleSDGothicNeo-Medium, Apple SD Gothic Neo" font-weight="500"><tspan x="0" y="0">완치후기</tspan></text>
    <text id="치료후기" transform="translate(964 674)" fill="#141414" font-size="20" font-family="AppleSDGothicNeo-Medium, Apple SD Gothic Neo" font-weight="500"><tspan x="0" y="0">치료후기</tspan></text>
    <text id="서비스_추천" data-name="서비스 추천" transform="translate(712 701)" fill="#141414" font-size="20" font-family="AppleSDGothicNeo-Medium, Apple SD Gothic Neo" font-weight="500"><tspan x="0" y="0">서비스 추천</tspan></text>
    <text id="식품으로_유산균을_섭취했어요_대장암_1기_완치_00님의_이야기" data-name="식품으로 유산균을 섭취했어요!
대장암 1기 완치 00님의 이야기" transform="translate(758 859)" fill="#767676" font-size="16" font-family="AppleSDGothicNeo-Medium, Apple SD Gothic Neo" font-weight="500"><tspan x="-96.328" y="0">식품으로 유산균을 섭취했어요!</tspan><tspan x="-97.6" y="24">대장암 1기 완치 00님의 이야기</tspan></text>
    <text id="식단후기" transform="translate(724 814)" fill="#141414" font-size="20" font-family="AppleSDGothicNeo-Medium, Apple SD Gothic Neo" font-weight="500"><tspan x="0" y="0">식단후기</tspan></text>
    <text id="견과류" transform="translate(1211 459)" fill="#141414" font-size="20" font-family="AppleSDGothicNeo-Medium, Apple SD Gothic Neo" font-weight="500"><tspan x="0" y="0">견과류</tspan></text>
    <text id="육류" transform="translate(1220 540)" fill="#141414" font-size="20" font-family="AppleSDGothicNeo-Medium, Apple SD Gothic Neo" font-weight="500"><tspan x="0" y="0">육류</tspan></text>
    <text id="식단구성" transform="translate(1444 621)" fill="#141414" font-size="20" font-family="AppleSDGothicNeo-Medium, Apple SD Gothic Neo" font-weight="500"><tspan x="0" y="0">식단구성</tspan></text>
    <text id="식단_및_운동_기록" data-name="식단 및 운동 기록" transform="translate(1409 867)" fill="#141414" font-size="20" font-family="AppleSDGothicNeo-Medium, Apple SD Gothic Neo" font-weight="500"><tspan x="0" y="0">식단 및 운동 기록</tspan></text>
    <text id="연관_요리" data-name="연관 요리" transform="translate(1201 702)" fill="#141414" font-size="20" font-family="AppleSDGothicNeo-Medium, Apple SD Gothic Neo" font-weight="500"><tspan x="0" y="0">연관 요리</tspan></text>
    <text id="전문가의_조언" data-name="전문가의 조언" transform="translate(1183 621)" fill="#141414" font-size="20" font-family="AppleSDGothicNeo-Medium, Apple SD Gothic Neo" font-weight="500"><tspan x="0" y="0">전문가의 조언</tspan></text>
    <text id="조리법" transform="translate(1212 783)" fill="#141414" font-size="20" font-family="AppleSDGothicNeo-Medium, Apple SD Gothic Neo" font-weight="500"><tspan x="0" y="0">조리법</tspan></text>
    <text id="즐겨먹는_요리_선택" data-name="즐겨먹는 요리 선택" transform="translate(1403 705)" fill="#141414" font-size="20" font-family="AppleSDGothicNeo-Medium, Apple SD Gothic Neo" font-weight="500"><tspan x="0" y="0">즐겨먹는 요리 선택</tspan></text>
    <text id="알레르기_음식_선택" data-name="알레르기 음식 선택" transform="translate(1403 786)" fill="#141414" font-size="20" font-family="AppleSDGothicNeo-Medium, Apple SD Gothic Neo" font-weight="500"><tspan x="0" y="0">알레르기 음식 선택</tspan></text>
    <text id="검색창" transform="translate(732 378)" fill="#141414" font-size="20" font-family="AppleSDGothicNeo-Medium, Apple SD Gothic Neo" font-weight="500"><tspan x="0" y="0">검색창</tspan></text>
    <text id="건강정보" transform="translate(964 297)" fill="#141414" font-size="20" font-family="AppleSDGothicNeo-Bold, Apple SD Gothic Neo" font-weight="700"><tspan x="0" y="0">건강정보</tspan></text>
    <rect id="사각형_68" data-name="사각형 68" width="191" height="27" transform="translate(671 728)" fill="#fff"/>
    <rect id="사각형_70" data-name="사각형 70" width="191" height="48" transform="translate(912 402)" fill="#fff"/>
    <rect id="사각형_73" data-name="사각형 73" width="191" height="48" transform="translate(1392 512)" fill="#fff"/>
    <rect id="사각형_78" data-name="사각형 78" width="191" height="48" transform="translate(1632 407)" fill="#fff"/>
    <rect id="사각형_77" data-name="사각형 77" width="191" height="48" transform="translate(1392 893)" fill="#fff"/>
    <rect id="사각형_72" data-name="사각형 72" width="191" height="27" transform="translate(1392 402)" fill="#fff"/>
    <text id="환절기엔_00섭취가_좋습니다_" data-name="환절기엔 00섭취가 좋습니다!" transform="translate(665 747)" fill="#767676" font-size="16" font-family="AppleSDGothicNeo-Medium, Apple SD Gothic Neo" font-weight="500"><tspan x="0" y="0">환절기엔 00섭취가 좋습니다!</tspan></text>
    <text id="방사선_1주차_항암_2차_후기" data-name="방사선 1주차, 항암 2차 후기" transform="translate(913 718)" fill="#767676" font-size="16" font-family="AppleSDGothicNeo-Medium, Apple SD Gothic Neo" font-weight="500"><tspan x="0" y="0">방사선 1주차, 항암 2차 후기</tspan></text>
    <text id="_00암엔_000섭취가_중요해요_하루_30분_운동의_힘_" data-name="00암엔 000섭취가 중요해요!
하루 30분 운동의 힘!" transform="translate(997 421)" fill="#767676" font-size="16" font-family="AppleSDGothicNeo-Medium, Apple SD Gothic Neo" font-weight="500"><tspan x="-93.968" y="0">00암엔 000섭취가 중요해요!</tspan><tspan x="-66.264" y="24">하루 30분 운동의 힘!</tspan></text>
    <text id="식단_및_운동기록을_보고_알람._식단_구성_도우미_" data-name="식단 및 운동기록을 보고 알람.
식단 구성 도우미?" transform="translate(1478 529)" fill="#767676" font-size="16" font-family="AppleSDGothicNeo-Medium, Apple SD Gothic Neo" font-weight="500"><tspan x="-93.408" y="0">식단 및 운동기록을 보고 알람.</tspan><tspan x="-56.344" y="24">식단 구성 도우미?</tspan></text>
    <text id="식단_운동_치료_관련_전반적인_관리_진행" data-name="식단, 운동, 치료 관련 
전반적인 관리 진행" transform="translate(1719 424)" fill="#767676" font-size="16" font-family="AppleSDGothicNeo-Medium, Apple SD Gothic Neo" font-weight="500"><tspan x="-67.68" y="0">식단, 운동, 치료 관련 </tspan><tspan x="-59.568" y="24">전반적인 관리 진행</tspan></text>
    <text id="사진_촬영_먹은_음식_작성_AI_or_전문가_검토_요청" data-name="사진 촬영 + 먹은 음식 작성
AI or 전문가 검토 요청" transform="translate(1478 910)" fill="#767676" font-size="16" font-family="AppleSDGothicNeo-Medium, Apple SD Gothic Neo" font-weight="500"><tspan x="-84.096" y="0">사진 촬영 + 먹은 음식 작성</tspan><tspan x="-70.648" y="24">AI or 전문가 검토 요청</tspan></text>
    <text id="신체정보_암정보_현재_상태" data-name="신체정보, 암정보, 현재 상태" transform="translate(1393 421)" fill="#767676" font-size="16" font-family="AppleSDGothicNeo-Medium, Apple SD Gothic Neo" font-weight="500"><tspan x="0" y="0">신체정보, 암정보, 현재 상태</tspan></text>
    <text id="오늘도_건강을_위해_30분_운동_단백질_잘_섭취하고_계시나요_즐겨먹던_토망고_지금_세일해요_" data-name="오늘도 건강을 위해 30분 운동!
단백질 잘 섭취하고 계시나요?
즐겨먹던 토망고 지금 세일해요!" transform="translate(530 342)" fill="#767676" font-size="16" font-family="AppleSDGothicNeo-Medium, Apple SD Gothic Neo" font-weight="500"><tspan x="-96.048" y="0">오늘도 건강을 위해 30분 운동!</tspan><tspan x="-93.048" y="24">단백질 잘 섭취하고 계시나요?</tspan><tspan x="-98.432" y="48">즐겨먹던 토망고 지금 세일해요!</tspan></text>
    <path id="패스_222" data-name="패스 222" d="M-7601.693,3879v-89.684h1188.1V3879" transform="translate(8132.193 -3591)" fill="none" stroke="#50d789" stroke-width="1"/>
    <g id="사각형_27" data-name="사각형 27" transform="translate(1633 260)" fill="#fff" stroke="#9a9a9a" stroke-width="1">
      <rect width="172" height="56" rx="5" stroke="none"/>
      <rect x="0.5" y="0.5" width="171" height="55" rx="4.5" fill="none"/>
    </g>
    <text id="마이페이지" transform="translate(1676 297)" fill="#141414" font-size="20" font-family="AppleSDGothicNeo-Bold, Apple SD Gothic Neo" font-weight="700"><tspan x="0" y="0">마이페이지</tspan></text>
    <g id="사각형_69" data-name="사각형 69" transform="translate(444 260)" fill="#fff" stroke="#9a9a9a" stroke-width="1">
      <rect width="172" height="56" rx="5" stroke="none"/>
      <rect x="0.5" y="0.5" width="171" height="55" rx="4.5" fill="none"/>
    </g>
    <text id="알람" transform="translate(513 297)" fill="#141414" font-size="20" font-family="AppleSDGothicNeo-Medium, Apple SD Gothic Neo" font-weight="500"><tspan x="0" y="0">알람</tspan></text>
    <rect id="사각형_754" data-name="사각형 754" width="100" height="23" transform="translate(480 225)" fill="#fff"/>
    <text id="데일리_AI_알람" data-name="데일리 AI 알람" transform="translate(490 243)" fill="#141414" font-size="14" font-family="AppleSDGothicNeo-Medium, Apple SD Gothic Neo" font-weight="500"><tspan x="0" y="0">데일리 AI 알람</tspan></text>
    <rect id="사각형_755" data-name="사각형 755" width="170" height="41" transform="translate(1152 207)" fill="#fff"/>
    <text id="유기농_식자재만_취급_전문가_조언_조리법_영상_제공" data-name="유기농 식자재만 취급, 
전문가 조언, 조리법 영상 제공" transform="translate(1237 222)" fill="#141414" font-size="14" font-family="AppleSDGothicNeo-Medium, Apple SD Gothic Neo" font-weight="500"><tspan x="-61.726" y="0">유기농 식자재만 취급, </tspan><tspan x="-81.732" y="22">전문가 조언, 조리법 영상 제공</tspan></text>
    <rect id="사각형_756" data-name="사각형 756" width="198" height="23" transform="translate(1382 225)" fill="#fff"/>
    <text id="암_종류별_식단_구성_및_전문가_조언" data-name="암 종류별 식단 구성 및 전문가 조언" transform="translate(1385 243)" fill="#141414" font-size="14" font-family="AppleSDGothicNeo-Medium, Apple SD Gothic Neo" font-weight="500"><tspan x="0" y="0">암 종류별 식단 구성 및 전문가 조언</tspan></text>
    <path id="패스_223" data-name="패스 223" d="M-7007,3746.1v42.37" transform="translate(8125 -3591)" fill="none" stroke="#50d789" stroke-width="1"/>
  </g>
</svg>
